# xmcd
#
# Track frame offsets:
# 187
# 12232
# 31965
# 47630
# 64660
# 86080
# 105505
# 121297
# 135037
# 148602
#
# Disc length: 2239 seconds
#
#
# Revision: 4
# Processed by: cddbd v1.5.1PL0 Copyright (c) Steve Scherf et al.
# Submitted via: FreeRIP 2.942 
#
DISCID=7908bd0a
DTITLE=Restless Heart - The Best Of Restless Heart
DYEAR=1991
DGENRE=Country
TTITLE0=You Can Depend On Me
TTITLE1=Fast Movin' Train
TTITLE2=A Tender Lie
TTITLE3=Wheels
TTITLE4=The Bluest Eyes In Texas
TTITLE5=Familiar Pain
TTITLE6=That Rock Won't Roll
TTITLE7=Til I Loved You
TTITLE8=Why Does It Have To Be (Wrong Or Right)
TTITLE9=I'll Still Be Loving You
EXTD=
EXTT0=
EXTT1=
EXTT2=
EXTT3=
EXTT4=
EXTT5=
EXTT6=
EXTT7=
EXTT8=
EXTT9=
PLAYORDER=
